<?xml version="1.0" encoding="UTF-8"?>
<!DOCTYPE svg PUBLIC "-//W3C//DTD SVG 1.1//EN" "http://www.w3.org/Graphics/SVG/1.1/DTD/svg11.dtd">
<svg xmlns="http://www.w3.org/2000/svg" version="1.1" width="318px" height="301px" style="shape-rendering:geometricPrecision; text-rendering:geometricPrecision; image-rendering:optimizeQuality; fill-rule:evenodd; clip-rule:evenodd" xmlns:xlink="http://www.w3.org/1999/xlink">
<g><path style="opacity:1" fill="#737372" d="M -0.5,-0.5 C 105.5,-0.5 211.5,-0.5 317.5,-0.5C 317.5,99.8333 317.5,200.167 317.5,300.5C 211.5,300.5 105.5,300.5 -0.5,300.5C -0.5,200.167 -0.5,99.8333 -0.5,-0.5 Z"/></g>
<g><path style="opacity:1" fill="#938b6d" d="M 137.5,72.5 C 137.56,71.9569 137.893,71.6236 138.5,71.5C 139.498,80.1411 139.831,88.8078 139.5,97.5C 138.833,89.1667 138.167,80.8333 137.5,72.5 Z"/></g>
<g><path style="opacity:1" fill="#f9d95a" d="M 118.5,88.5 C 120.167,88.5 121.833,88.5 123.5,88.5C 123.5,91.5 123.5,94.5 123.5,97.5C 121.833,97.5 120.167,97.5 118.5,97.5C 118.5,94.5 118.5,91.5 118.5,88.5 Z"/></g>
<g><path style="opacity:1" fill="#eace5d" d="M 128.5,77.5 C 128.975,111.486 128.975,145.153 128.5,178.5C 127.167,144.833 127.167,111.167 128.5,77.5 Z"/></g>
<g><path style="opacity:1" fill="#f2d55d" d="M 189.5,88.5 C 191.167,88.5 192.833,88.5 194.5,88.5C 194.5,91.5 194.5,94.5 194.5,97.5C 192.833,97.5 191.167,97.5 189.5,97.5C 189.5,94.5 189.5,91.5 189.5,88.5 Z"/></g>
<g><path style="opacity:1" fill="#fddd59" d="M 112.5,85.5 C 113.747,98.9868 113.747,112.32 112.5,125.5C 111.52,126.981 110.353,128.315 109,129.5C 109.6,115.713 109.433,101.713 108.5,87.5C 109.514,86.3263 110.847,85.6596 112.5,85.5 Z"/></g>
<g><path style="opacity:1" fill="#fddd59" d="M 200.5,85.5 C 201.609,85.5569 202.609,85.8902 203.5,86.5C 204.004,101.096 204.17,115.429 204,129.5C 202.287,128.122 200.953,126.455 200,124.5C 199.173,111.327 199.34,98.3268 200.5,85.5 Z"/></g>
<g><path style="opacity:1" fill="#f7d85b" d="M 118.5,107.5 C 120.167,107.5 121.833,107.5 123.5,107.5C 123.5,110.5 123.5,113.5 123.5,116.5C 121.833,116.5 120.167,116.5 118.5,116.5C 118.5,113.5 118.5,110.5 118.5,107.5 Z"/></g>
<g><path style="opacity:1" fill="#f7d85b" d="M 189.5,107.5 C 191.167,107.5 192.833,107.5 194.5,107.5C 194.5,110.5 194.5,113.5 194.5,116.5C 192.833,116.5 191.167,116.5 189.5,116.5C 189.5,113.5 189.5,110.5 189.5,107.5 Z"/></g>
<g><path style="opacity:1" fill="#f0d25c" d="M 112.5,85.5 C 112.56,84.9569 112.893,84.6236 113.5,84.5C 114.5,115.826 114.833,147.16 114.5,178.5C 112.167,178.5 109.833,178.5 107.5,178.5C 107.169,147.995 107.502,117.662 108.5,87.5C 109.433,101.713 109.6,115.713 109,129.5C 110.353,128.315 111.52,126.981 112.5,125.5C 113.747,112.32 113.747,98.9868 112.5,85.5 Z"/></g>
<g><path style="opacity:1" fill="#f6d75a" d="M 189.5,125.5 C 191.167,125.5 192.833,125.5 194.5,125.5C 194.5,128.5 194.5,131.5 194.5,134.5C 192.833,134.5 191.167,134.5 189.5,134.5C 189.5,131.5 189.5,128.5 189.5,125.5 Z"/></g>
<g><path style="opacity:1" fill="#f5d65b" d="M 118.5,125.5 C 120.167,125.5 121.833,125.5 123.5,125.5C 123.5,128.5 123.5,131.5 123.5,134.5C 121.833,134.5 120.167,134.5 118.5,134.5C 118.5,131.5 118.5,128.5 118.5,125.5 Z"/></g>
<g><path style="opacity:1" fill="#ebcf5d" d="M 200.5,85.5 C 199.34,98.3268 199.173,111.327 200,124.5C 200.953,126.455 202.287,128.122 204,129.5C 204.17,115.429 204.004,101.096 203.5,86.5C 204.117,86.6107 204.617,86.944 205,87.5C 205.831,118.003 205.664,148.336 204.5,178.5C 204.498,164.508 204.498,150.508 204.5,136.5C 205.026,132.516 203.526,129.516 200,127.5C 199.991,144.079 199.824,161.079 199.5,178.5C 198.17,147.331 198.17,115.997 199.5,84.5C 200.107,84.6236 200.44,84.9569 200.5,85.5 Z"/></g>
<g><path style="opacity:1" fill="#f5d65b" d="M 118.5,143.5 C 120.167,143.5 121.833,143.5 123.5,143.5C 123.5,146.833 123.5,150.167 123.5,153.5C 121.833,153.5 120.167,153.5 118.5,153.5C 118.5,150.167 118.5,146.833 118.5,143.5 Z"/></g>
<g><path style="opacity:1" fill="#f4d65b" d="M 189.5,143.5 C 191.167,143.5 192.833,143.5 194.5,143.5C 194.5,146.833 194.5,150.167 194.5,153.5C 192.833,153.5 191.167,153.5 189.5,153.5C 189.5,150.167 189.5,146.833 189.5,143.5 Z"/></g>
<g><path style="opacity:1" fill="#fcdc5a" d="M 137.5,72.5 C 138.167,80.8333 138.833,89.1667 139.5,97.5C 139.414,98.4959 139.748,99.3292 140.5,100C 151.167,100.667 161.833,100.667 172.5,100C 173,99.5 173.5,99 174,98.5C 174.168,89.8142 174.668,81.1475 175.5,72.5C 178.746,74.0392 181.912,75.7059 185,77.5C 185.5,111.165 185.667,144.832 185.5,178.5C 181.833,178.5 178.167,178.5 174.5,178.5C 174.666,170.16 174.5,161.827 174,153.5C 173.167,152.667 172.333,151.833 171.5,151C 161.5,150.333 151.5,150.333 141.5,151C 140.667,151.833 139.833,152.667 139,153.5C 138.5,161.827 138.334,170.16 138.5,178.5C 135.167,178.5 131.833,178.5 128.5,178.5C 128.975,145.153 128.975,111.486 128.5,77.5C 131.304,75.5954 134.304,73.9287 137.5,72.5 Z"/></g>
<g><path style="opacity:1" fill="#747472" d="M 141.5,106.5 C 151.506,106.334 161.506,106.5 171.5,107C 172.333,107.833 173.167,108.667 174,109.5C 174.667,120.167 174.667,130.833 174,141.5C 173.626,142.416 173.126,143.25 172.5,144C 161.59,144.82 150.757,144.653 140,143.5C 138.378,132.264 138.045,120.931 139,109.5C 140.045,108.627 140.878,107.627 141.5,106.5 Z"/></g>
<g><path style="opacity:1" fill="#fedd59" d="M 112.5,127.5 C 112.441,140.343 112.607,153.343 113,166.5C 109.474,164.484 107.974,161.484 108.5,157.5C 108.537,150.335 108.537,143.168 108.5,136C 108.833,134.167 109.167,132.333 109.5,130.5C 110.855,129.812 111.855,128.812 112.5,127.5 Z"/></g>
<g><path style="opacity:1" fill="#fedd59" d="M 204.5,178.5 C 202.833,178.5 201.167,178.5 199.5,178.5C 199.824,161.079 199.991,144.079 200,127.5C 203.526,129.516 205.026,132.516 204.5,136.5C 204.498,150.508 204.498,164.508 204.5,178.5 Z"/></g>
<g><path style="opacity:1" fill="#fada5a" d="M 118.5,162.5 C 120.167,162.5 121.833,162.5 123.5,162.5C 123.5,165.5 123.5,168.5 123.5,171.5C 121.833,171.5 120.167,171.5 118.5,171.5C 118.5,168.5 118.5,165.5 118.5,162.5 Z"/></g>
<g><path style="opacity:1" fill="#f7d85a" d="M 189.5,162.5 C 191.167,162.5 192.833,162.5 194.5,162.5C 194.5,165.5 194.5,168.5 194.5,171.5C 192.833,171.5 191.167,171.5 189.5,171.5C 189.5,168.5 189.5,165.5 189.5,162.5 Z"/></g>
<g><path style="opacity:1" fill="#f6d75a" d="M 85.5,229.5 C 85.6663,222.159 85.4997,214.826 85,207.5C 84.3583,211.491 83.8583,215.491 83.5,219.5C 82.5863,222.728 82.2529,226.061 82.5,229.5C 80.1667,229.5 77.8333,229.5 75.5,229.5C 73.1905,202.954 72.1905,202.954 72.5,229.5C 70.8333,229.5 69.1667,229.5 67.5,229.5C 67.5,217.5 67.5,205.5 67.5,193.5C 70.4475,193.223 73.2809,193.556 76,194.5C 76.7831,201.199 77.7831,207.865 79,214.5C 80.5851,207.571 81.7517,200.571 82.5,193.5C 85.5,193.5 88.5,193.5 91.5,193.5C 91.5,205.5 91.5,217.5 91.5,229.5C 89.5,229.5 87.5,229.5 85.5,229.5 Z"/></g>
<g><path style="opacity:1" fill="#f4d55b" d="M 98.5,193.5 C 101.187,193.336 103.854,193.503 106.5,194C 108.667,194.833 110.167,196.333 111,198.5C 111.667,207.167 111.667,215.833 111,224.5C 108.103,229.155 103.937,230.655 98.5,229C 96.4476,228.07 94.9476,226.57 94,224.5C 93.3333,215.833 93.3333,207.167 94,198.5C 95.025,196.313 96.525,194.646 98.5,193.5 Z"/></g>
<g><path style="opacity:1" fill="#f5d65b" d="M 113.5,193.5 C 115.5,193.5 117.5,193.5 119.5,193.5C 120.502,201.514 121.669,209.514 123,217.5C 124.331,209.514 125.498,201.514 126.5,193.5C 128.5,193.5 130.5,193.5 132.5,193.5C 130.965,205.522 129.298,217.522 127.5,229.5C 124.167,229.5 120.833,229.5 117.5,229.5C 116.24,217.492 114.907,205.492 113.5,193.5 Z"/></g>
<g><path style="opacity:1" fill="#f8d85a" d="M 134.5,193.5 C 136.5,193.5 138.5,193.5 140.5,193.5C 140.5,205.5 140.5,217.5 140.5,229.5C 138.5,229.5 136.5,229.5 134.5,229.5C 134.5,217.5 134.5,205.5 134.5,193.5 Z"/></g>
<g><path style="opacity:1" fill="#fada5a" d="M 144.5,193.5 C 149.833,193.5 155.167,193.5 160.5,193.5C 160.5,195.167 160.5,196.833 160.5,198.5C 157.167,198.5 153.833,198.5 150.5,198.5C 150.5,201.833 150.5,205.167 150.5,208.5C 153.167,208.5 155.833,208.5 158.5,208.5C 158.5,210.167 158.5,211.833 158.5,213.5C 155.833,213.5 153.167,213.5 150.5,213.5C 150.5,217.167 150.5,220.833 150.5,224.5C 153.833,224.5 157.167,224.5 160.5,224.5C 160.5,226.167 160.5,227.833 160.5,229.5C 155.167,229.5 149.833,229.5 144.5,229.5C 144.5,217.5 144.5,205.5 144.5,193.5 Z"/></g>
<g><path style="opacity:1" fill="#f7d85a" d="M 170.5,193.5 C 174.846,193.334 179.179,193.501 183.5,194C 186.934,195.529 188.6,198.196 188.5,202C 188.387,205.175 187.387,208.008 185.5,210.5C 192.341,225.685 187.341,232.018 170.5,229.5C 170.5,217.5 170.5,205.5 170.5,193.5 Z"/></g>
<g><path style="opacity:1" fill="#f6d75b" d="M 195.5,193.5 C 198.833,193.5 202.167,193.5 205.5,193.5C 206.733,205.563 208.4,217.563 210.5,229.5C 208.167,229.5 205.833,229.5 203.5,229.5C 203.5,227.5 203.5,225.5 203.5,223.5C 201.167,223.5 198.833,223.5 196.5,223.5C 196.5,225.5 196.5,227.5 196.5,229.5C 194.5,229.5 192.5,229.5 190.5,229.5C 191.95,217.469 193.616,205.469 195.5,193.5 Z"/></g>
<g><path style="opacity:1" fill="#f7d85a" d="M 215.5,193.5 C 223.971,191.869 228.304,195.202 228.5,203.5C 226.5,203.5 224.5,203.5 222.5,203.5C 223.169,199.324 221.669,197.991 218,199.5C 217.143,202.551 217.81,205.217 220,207.5C 223.038,210.203 225.705,213.203 228,216.5C 229.833,226.667 225.667,230.833 215.5,229C 211.952,226.409 210.618,222.909 211.5,218.5C 213.5,218.5 215.5,218.5 217.5,218.5C 217.261,220.467 217.594,222.301 218.5,224C 221.23,224.942 222.563,223.942 222.5,221C 221.517,216.678 219.017,213.512 215,211.5C 210.196,205.225 210.362,199.225 215.5,193.5 Z"/></g>
<g><path style="opacity:1" fill="#fbdb59" d="M 231.5,193.5 C 236.5,193.5 241.5,193.5 246.5,193.5C 246.5,195.167 246.5,196.833 246.5,198.5C 243.5,198.5 240.5,198.5 237.5,198.5C 237.5,201.833 237.5,205.167 237.5,208.5C 239.833,208.5 242.167,208.5 244.5,208.5C 244.5,210.167 244.5,211.833 244.5,213.5C 242.167,213.5 239.833,213.5 237.5,213.5C 237.5,217.167 237.5,220.833 237.5,224.5C 240.5,224.5 243.5,224.5 246.5,224.5C 246.5,226.167 246.5,227.833 246.5,229.5C 241.5,229.5 236.5,229.5 231.5,229.5C 231.5,217.5 231.5,205.5 231.5,193.5 Z"/></g>
<g><path style="opacity:1" fill="#7f7b71" d="M 176.5,198.5 C 180.49,197.824 182.157,199.49 181.5,203.5C 182.157,207.51 180.49,209.176 176.5,208.5C 176.5,205.167 176.5,201.833 176.5,198.5 Z"/></g>
<g><path style="opacity:1" fill="#7a7871" d="M 101.5,198.5 C 102.583,198.539 103.583,198.873 104.5,199.5C 105.833,207.5 105.833,215.5 104.5,223.5C 103.28,224.711 102.113,224.711 101,223.5C 100.199,215.088 100.366,206.755 101.5,198.5 Z"/></g>
<g><path style="opacity:1" fill="#88826f" d="M 199.5,203.5 C 201.237,208.23 202.237,213.23 202.5,218.5C 200.833,218.5 199.167,218.5 197.5,218.5C 198.167,213.5 198.833,208.5 199.5,203.5 Z"/></g>
<g><path style="opacity:1" fill="#a0956a" d="M 85.5,229.5 C 84.8333,226.167 84.1667,222.833 83.5,219.5C 83.8583,215.491 84.3583,211.491 85,207.5C 85.4997,214.826 85.6663,222.159 85.5,229.5 Z"/></g>
<g><path style="opacity:1" fill="#817d70" d="M 176.5,213.5 C 180.821,212.824 182.821,214.658 182.5,219C 183.239,223.76 181.239,225.593 176.5,224.5C 176.5,220.833 176.5,217.167 176.5,213.5 Z"/></g>
</svg>
