<svg version="1.1" id="Layer_1" xmlns="http://www.w3.org/2000/svg" xmlns:xlink="http://www.w3.org/1999/xlink" x="0px" y="0px"
	 width="100%" viewBox="0 0 318 301" enable-background="new 0 0 318 301" xml:space="preserve">
<path fill="#737373" opacity="1.000000" stroke="none" 
	d="
M157.000000,302.000000 
	C104.666695,302.000000 52.833382,302.000000 1.000056,302.000000 
	C1.000037,201.666733 1.000037,101.333481 1.000019,1.000163 
	C106.999878,1.000109 212.999756,1.000109 318.999725,1.000054 
	C318.999817,101.333160 318.999817,201.666321 318.999908,301.999756 
	C265.166656,302.000000 211.333328,302.000000 157.000000,302.000000 
M129.069992,84.780846 
	C129.069992,116.370537 129.069992,147.960220 129.069992,179.807312 
	C133.030884,179.807312 136.262878,179.807312 140.173950,179.807312 
	C140.173950,172.714584 140.119003,165.934906 140.191299,159.156570 
	C140.249390,153.711655 141.611481,152.322998 146.973755,152.262054 
	C153.802750,152.184402 160.633316,152.225220 167.463120,152.242630 
	C174.893524,152.261551 175.876602,153.227585 175.897125,160.517517 
	C175.915207,166.937592 175.900909,173.357773 175.900909,179.710648 
	C180.034317,179.710648 183.267365,179.710648 186.456497,179.710648 
	C186.662003,178.827805 186.868225,178.354324 186.868805,177.880569 
	C186.907562,145.897903 186.950546,113.915176 186.874863,81.932724 
	C186.871948,80.699043 186.032104,78.975624 185.033386,78.331772 
	C182.437851,76.658501 179.536163,75.460114 175.894302,73.641647 
	C175.894302,81.635468 175.840042,88.728951 175.914368,95.821068 
	C175.960007,100.178131 174.128052,102.204224 169.593628,102.092590 
	C162.102554,101.908173 154.603470,102.070946 147.108002,102.036034 
	C141.303253,102.008995 140.232880,100.926559 140.183945,94.934113 
	C140.128571,88.153214 140.171173,81.371506 140.171173,74.462296 
	C131.331543,76.633614 129.224075,78.486855 129.069992,84.780846 
M73.912453,226.248642 
	C73.912453,222.728256 73.912453,219.207855 73.912453,215.687469 
	C74.257256,215.668503 74.602066,215.649536 74.946869,215.630554 
	C75.876266,220.632431 76.805672,225.634293 77.706406,230.481888 
	C86.899750,233.273560 82.342262,223.985016 86.329430,221.604324 
	C86.640228,224.749191 86.924484,227.625427 87.227180,230.688354 
	C88.940483,230.688354 90.510406,230.688354 92.150803,230.688354 
	C92.150803,218.691330 92.150803,207.010986 92.150803,195.397034 
	C84.396851,194.526947 84.397110,194.526993 83.302452,201.698013 
	C82.675674,205.803986 82.047897,209.909805 81.420563,214.015686 
	C80.984100,213.971039 80.547630,213.926392 80.111168,213.881729 
	C79.007423,207.721237 77.903671,201.560745 76.775986,195.266647 
	C73.981491,195.266647 71.562332,195.266647 69.000458,195.266647 
	C69.000458,207.254318 69.000458,218.947693 69.000458,230.527267 
	C72.645035,231.669052 74.232529,230.639008 73.912453,226.248642 
M115.965370,115.499977 
	C115.965370,105.940628 115.965370,96.381271 115.965370,86.558105 
	C110.879379,87.498596 108.921425,89.582535 108.963722,94.443130 
	C109.192535,120.738716 109.073593,147.037323 109.074486,173.334900 
	C109.074554,175.440186 109.074493,177.545471 109.074493,179.717316 
	C111.715042,179.717316 113.599472,179.717316 115.965370,179.717316 
	C115.965370,158.378662 115.965370,137.439331 115.965370,115.499977 
M206.957443,130.500031 
	C206.957596,118.513847 206.735291,106.521568 207.063263,94.544357 
	C207.201706,89.488762 205.209717,87.280304 200.430084,86.747055 
	C200.430084,117.845612 200.430084,148.730927 200.430084,179.730667 
	C202.682907,179.730667 204.566437,179.730667 206.954041,179.730667 
	C206.954041,163.396423 206.954041,147.448242 206.957443,130.500031 
M188.034164,210.313950 
	C190.225861,205.998291 190.808212,201.295776 187.673233,197.598373 
	C183.622482,192.820862 177.885788,195.476685 172.537262,195.159027 
	C172.537262,207.287018 172.537262,218.845169 172.537262,231.015991 
	C175.823868,231.015991 178.772797,231.083527 181.717575,231.001495 
	C187.306320,230.845825 190.146545,228.306107 189.922119,222.649475 
	C189.766388,218.724777 188.436050,214.846710 188.034164,210.313950 
M196.992874,197.412918 
	C195.257187,208.362228 193.521515,219.311539 191.786652,230.255753 
	C195.429749,231.572571 197.395401,231.265549 198.079361,227.499176 
	C198.259827,226.505386 200.300858,225.208221 201.479645,225.216202 
	C202.673645,225.224258 204.732956,226.532333 204.895050,227.520126 
	C205.600189,231.817291 208.126068,231.314575 211.672531,230.438416 
	C209.788040,218.608170 207.925049,206.912872 205.893372,194.158539 
	C202.468445,195.111877 199.822205,195.848465 196.992874,197.412918 
M105.236259,231.002853 
	C110.579575,230.546539 112.755699,227.221954 112.849312,222.282425 
	C112.965881,216.131409 113.011200,209.973053 112.844894,203.824417 
	C112.684364,197.889404 109.830048,195.077820 104.346954,194.985580 
	C98.699684,194.890594 95.653366,197.437424 95.352028,203.313873 
	C95.028847,209.616302 95.047302,215.955688 95.306030,222.262985 
	C95.558418,228.415970 98.052834,230.580078 105.236259,231.002853 
M115.547211,203.270798 
	C116.725471,210.993790 117.986153,218.705536 119.040314,226.445435 
	C119.446625,229.428665 120.161644,231.261749 123.844269,231.143051 
	C127.125328,231.037308 129.041824,230.600113 129.438736,226.751328 
	C130.119949,220.145599 131.354172,213.597275 132.340668,207.022522 
	C132.919159,203.166992 133.467529,199.306961 134.006424,195.606964 
	C129.929474,194.305176 128.338760,195.258835 127.927513,198.903824 
	C127.206116,205.297760 126.040230,211.641541 125.060539,218.006348 
	C122.998497,211.868591 121.792412,205.734467 121.195511,199.541626 
	C120.776077,195.190079 118.937622,194.149460 114.677307,195.590988 
	C114.916527,197.887802 115.153046,200.158615 115.547211,203.270798 
M229.862885,224.072021 
	C230.685257,218.454132 227.641830,214.745789 223.971039,211.032318 
	C221.883591,208.920639 220.544724,205.981003 219.268005,203.229019 
	C219.008179,202.668976 220.373505,201.035355 221.325974,200.404007 
	C221.664185,200.179825 223.633728,201.339386 223.779190,202.079407 
	C224.618057,206.346970 227.118591,205.072144 229.615387,204.371643 
	C229.669022,197.660370 227.184021,194.941315 221.298676,194.986893 
	C215.658936,195.030563 212.264145,198.410690 213.154602,204.365417 
	C213.632416,207.560638 215.789474,210.619583 217.624222,213.458603 
	C218.952133,215.513321 221.386337,216.881439 222.589493,218.978882 
	C223.449661,220.478409 223.249146,222.688034 223.148026,224.560623 
	C223.124847,224.989670 220.900101,225.779205 220.815384,225.652084 
	C219.875809,224.241898 219.163391,222.681091 218.376236,221.167938 
	C218.226608,220.880325 218.018692,220.623016 217.722229,220.178711 
	C216.369873,220.178711 214.906693,220.178711 213.474243,220.178711 
	C212.437912,226.038651 214.096024,229.569626 218.336945,230.773117 
	C223.705948,232.296722 227.424149,230.377853 229.862885,224.072021 
M238.833252,223.269440 
	C238.833252,220.667740 238.833252,218.066040 238.833252,215.336838 
	C241.625610,215.087418 243.714554,214.900818 246.205261,214.678345 
	C246.115112,213.022385 246.039856,211.639801 245.966995,210.301483 
	C243.414719,210.034149 241.325348,209.815308 239.175964,209.590179 
	C239.175964,206.314896 239.175964,203.414017 239.175964,200.300079 
	C242.281433,200.094849 245.029510,199.913223 248.190475,199.704330 
	C248.101990,198.022705 248.028961,196.634583 247.958572,195.296951 
	C242.728622,195.296951 237.964966,195.296951 233.081818,195.296951 
	C233.081818,207.298218 233.081818,218.986664 233.081818,230.680847 
	C238.324646,230.680847 243.066696,230.680847 248.252991,230.680847 
	C248.114441,228.949600 248.004990,227.581955 247.969406,227.137421 
	C244.443085,225.988678 241.678604,225.088120 238.833252,223.269440 
M152.762268,215.316223 
	C154.862930,215.100876 156.963593,214.885544 159.084900,214.668076 
	C160.895432,207.304443 154.155411,211.501373 152.261200,209.089325 
	C152.261200,206.326309 152.261200,203.423401 152.261200,199.994156 
	C154.737885,199.994156 156.901398,200.226944 158.971893,199.889267 
	C159.911102,199.736084 160.665817,198.451599 161.504227,197.680328 
	C160.617599,196.787903 159.779572,195.190063 158.835922,195.125031 
	C154.719147,194.841385 150.571686,195.003082 146.213638,195.003082 
	C146.213638,207.186066 146.213638,218.901245 146.213638,231.011047 
	C150.421783,231.011047 154.233917,230.936386 158.041779,231.031754 
	C161.965012,231.129990 162.027618,229.169266 160.878082,226.214828 
	C157.976913,226.039993 155.213745,225.873474 152.184998,225.690933 
	C152.184998,222.225311 152.184998,219.112732 152.762268,215.316223 
M136.183563,212.501099 
	C136.183563,218.564438 136.183563,224.627777 136.183563,230.694458 
	C138.723770,230.694458 140.316132,230.694458 141.975891,230.694458 
	C141.975891,218.699692 141.975891,207.014465 141.975891,195.000519 
	C139.910553,195.095810 138.327972,195.168839 136.183578,195.267776 
	C136.183578,200.929108 136.183578,206.215973 136.183563,212.501099 
M120.024117,93.630234 
	C120.024117,95.262917 120.024117,96.895599 120.024117,98.831024 
	C121.788788,98.831024 123.190529,98.831024 124.949921,98.831024 
	C124.949921,96.754387 125.152718,94.928490 124.874603,93.179054 
	C124.705162,92.113228 123.794685,91.165199 123.217072,90.164253 
	C122.158638,91.037323 121.100204,91.910385 120.024117,93.630234 
M195.992905,96.919556 
	C195.994690,95.594589 196.322571,94.153252 195.903336,92.978554 
	C195.511459,91.880501 194.326965,91.065323 193.491318,90.125641 
	C192.689453,91.087852 191.435486,91.947830 191.189499,93.035728 
	C190.800125,94.757812 191.085739,96.632523 191.085739,99.589653 
	C193.105698,98.809937 194.519302,98.264275 195.992905,96.919556 
M191.892014,154.343323 
	C193.228500,153.897003 195.647690,153.568314 195.711212,152.983688 
	C195.965515,150.642975 195.488708,148.222839 195.282318,145.832062 
	C193.885025,146.340195 191.508377,146.584396 191.286118,147.409195 
	C190.757629,149.370132 191.248657,151.605804 191.892014,154.343323 
M123.336479,145.437500 
	C122.233139,146.253372 120.271774,146.999054 120.198166,147.899139 
	C120.024162,150.026794 120.747833,152.227859 121.108513,154.399246 
	C122.384125,153.873367 124.699203,153.431946 124.750023,152.806534 
	C124.939888,150.469971 124.387993,148.073105 123.336479,145.437500 
M124.903114,116.093033 
	C124.923553,114.602173 125.272522,113.011734 124.860420,111.651970 
	C124.531120,110.565414 123.275520,109.759583 122.431068,108.829155 
	C121.641647,109.816452 120.390633,110.709808 120.166283,111.812119 
	C119.788612,113.667763 120.062820,115.656082 120.062820,118.405693 
	C122.179024,117.747803 123.459328,117.349777 124.903114,116.093033 
M191.818237,109.208282 
	C189.887238,116.638687 190.684143,118.314087 195.976959,117.118744 
	C195.976959,115.404289 196.393585,113.457672 195.839874,111.844017 
	C195.426544,110.639473 193.759872,109.864998 191.818237,109.208282 
M124.980759,132.396286 
	C124.901482,130.795334 124.822205,129.194382 124.746086,127.657356 
	C119.593063,126.994530 119.192169,127.838371 120.948006,137.142853 
	C122.700142,135.455276 123.833054,134.364120 124.980759,132.396286 
M195.995422,169.370468 
	C195.489746,167.341156 197.290894,163.258621 193.234116,164.367752 
	C191.699265,164.787369 191.304703,169.377670 190.390366,172.066879 
	C191.120529,172.534561 191.850693,173.002243 192.580841,173.469925 
	C193.714706,172.395447 194.848572,171.320969 195.995422,169.370468 
M120.057983,166.769287 
	C120.050293,173.431259 120.050293,173.431259 124.656532,172.080658 
	C124.656532,169.526077 124.656532,166.971512 124.656532,162.945831 
	C122.585365,164.292053 121.350937,165.094421 120.057983,166.769287 
M195.768661,128.050858 
	C194.341614,127.973412 192.914566,127.895958 191.487518,127.818504 
	C191.442337,130.237488 191.152695,132.696976 191.541641,135.043991 
	C191.627731,135.563446 194.112503,135.685379 195.936386,136.088379 
	C195.936386,133.132690 195.936386,131.020401 195.768661,128.050858 
z"/>
<path fill="#FCDB5A" opacity="1.000000" stroke="none" 
	d="
M129.070343,84.321167 
	C129.224075,78.486855 131.331543,76.633614 140.171173,74.462296 
	C140.171173,81.371506 140.128571,88.153214 140.183945,94.934113 
	C140.232880,100.926559 141.303253,102.008995 147.108002,102.036034 
	C154.603470,102.070946 162.102554,101.908173 169.593628,102.092590 
	C174.128052,102.204224 175.960007,100.178131 175.914368,95.821068 
	C175.840042,88.728951 175.894302,81.635468 175.894302,73.641647 
	C179.536163,75.460114 182.437851,76.658501 185.033386,78.331772 
	C186.032104,78.975624 186.871948,80.699043 186.874863,81.932724 
	C186.950546,113.915176 186.907562,145.897903 186.868805,177.880569 
	C186.868225,178.354324 186.662003,178.827805 186.456497,179.710648 
	C183.267365,179.710648 180.034317,179.710648 175.900909,179.710648 
	C175.900909,173.357773 175.915207,166.937592 175.897125,160.517517 
	C175.876602,153.227585 174.893524,152.261551 167.463120,152.242630 
	C160.633316,152.225220 153.802750,152.184402 146.973755,152.262054 
	C141.611481,152.322998 140.249390,153.711655 140.191299,159.156570 
	C140.119003,165.934906 140.173950,172.714584 140.173950,179.807312 
	C136.262878,179.807312 133.030884,179.807312 129.069992,179.807312 
	C129.069992,147.960220 129.069992,116.370537 129.070343,84.321167 
M153.537949,146.119629 
	C158.865311,146.115997 164.195724,146.000015 169.519104,146.143585 
	C173.924973,146.262421 175.971954,144.382523 175.925995,139.930206 
	C175.838364,131.440689 175.850937,122.949242 175.918213,114.459358 
	C175.953003,110.069054 173.852219,108.036369 169.534821,108.049011 
	C161.876846,108.071442 154.218613,108.082161 146.560760,108.044662 
	C142.215607,108.023392 140.132584,110.101585 140.161346,114.453430 
	C140.204269,120.945869 140.152924,127.438858 140.162476,133.931595 
	C140.180389,146.111710 140.186584,146.111694 153.537949,146.119629 
z"/>
<path fill="#F7D85B" opacity="1.000000" stroke="none" 
	d="
M73.910095,226.702530 
	C74.232529,230.639008 72.645035,231.669052 69.000458,230.527267 
	C69.000458,218.947693 69.000458,207.254318 69.000458,195.266647 
	C71.562332,195.266647 73.981491,195.266647 76.775986,195.266647 
	C77.903671,201.560745 79.007423,207.721237 80.111168,213.881729 
	C80.547630,213.926392 80.984100,213.971039 81.420563,214.015686 
	C82.047897,209.909805 82.675674,205.803986 83.302452,201.698013 
	C84.397110,194.526993 84.396851,194.526947 92.150803,195.397034 
	C92.150803,207.010986 92.150803,218.691330 92.150803,230.688354 
	C90.510406,230.688354 88.940483,230.688354 87.227180,230.688354 
	C86.924484,227.625427 86.640228,224.749191 86.329430,221.604324 
	C82.342262,223.985016 86.899750,233.273560 77.706406,230.481888 
	C76.805672,225.634293 75.876266,220.632431 74.946869,215.630554 
	C74.602066,215.649536 74.257256,215.668503 73.912453,215.687469 
	C73.912453,219.207855 73.912453,222.728256 73.910095,226.702530 
z"/>
<path fill="#F8D95B" opacity="1.000000" stroke="none" 
	d="
M115.965370,115.999985 
	C115.965370,137.439331 115.965370,158.378662 115.965370,179.717316 
	C113.599472,179.717316 111.715042,179.717316 109.074493,179.717316 
	C109.074493,177.545471 109.074554,175.440186 109.074486,173.334900 
	C109.073593,147.037323 109.192535,120.738716 108.963722,94.443130 
	C108.921425,89.582535 110.879379,87.498596 115.965370,86.558105 
	C115.965370,96.381271 115.965370,105.940628 115.965370,115.999985 
z"/>
<path fill="#F8D95B" opacity="1.000000" stroke="none" 
	d="
M206.955750,131.000046 
	C206.954041,147.448242 206.954041,163.396423 206.954041,179.730667 
	C204.566437,179.730667 202.682907,179.730667 200.430084,179.730667 
	C200.430084,148.730927 200.430084,117.845612 200.430084,86.747055 
	C205.209717,87.280304 207.201706,89.488762 207.063263,94.544357 
	C206.735291,106.521568 206.957596,118.513847 206.955750,131.000046 
z"/>
<path fill="#F8D95A" opacity="1.000000" stroke="none" 
	d="
M187.832336,210.630875 
	C188.436050,214.846710 189.766388,218.724777 189.922119,222.649475 
	C190.146545,228.306107 187.306320,230.845825 181.717575,231.001495 
	C178.772797,231.083527 175.823868,231.015991 172.537262,231.015991 
	C172.537262,218.845169 172.537262,207.287018 172.537262,195.159027 
	C177.885788,195.476685 183.622482,192.820862 187.673233,197.598373 
	C190.808212,201.295776 190.225861,205.998291 187.832336,210.630875 
M180.518005,225.957703 
	C183.971207,224.512451 185.563049,218.281708 182.785217,216.153107 
	C181.954712,215.516663 179.971924,216.383942 178.517059,216.562286 
	C178.908905,219.660583 179.300751,222.758881 180.518005,225.957703 
M183.371414,203.033356 
	C182.304535,202.054184 181.237656,201.074997 180.170792,200.095840 
	C179.564392,201.245697 178.561325,202.355606 178.440598,203.554367 
	C178.237717,205.568527 178.596039,207.639191 178.729065,209.867020 
	C183.833557,209.947525 183.412628,206.730011 183.371414,203.033356 
z"/>
<path fill="#F8D95A" opacity="1.000000" stroke="none" 
	d="
M197.084412,196.998993 
	C199.822205,195.848465 202.468445,195.111877 205.893372,194.158539 
	C207.925049,206.912872 209.788040,218.608170 211.672531,230.438416 
	C208.126068,231.314575 205.600189,231.817291 204.895050,227.520126 
	C204.732956,226.532333 202.673645,225.224258 201.479645,225.216202 
	C200.300858,225.208221 198.259827,226.505386 198.079361,227.499176 
	C197.395401,231.265549 195.429749,231.572571 191.786652,230.255753 
	C193.521515,219.311539 195.257187,208.362228 197.084412,196.998993 
M202.895706,212.683456 
	C202.561234,211.069626 202.226776,209.455795 201.683960,206.836716 
	C198.012177,217.416534 198.487305,220.097229 203.655670,219.225876 
	C203.442276,217.324432 203.226013,215.397491 202.895706,212.683456 
z"/>
<path fill="#F8D95A" opacity="1.000000" stroke="none" 
	d="
M104.828156,231.008698 
	C98.052834,230.580078 95.558418,228.415970 95.306030,222.262985 
	C95.047302,215.955688 95.028847,209.616302 95.352028,203.313873 
	C95.653366,197.437424 98.699684,194.890594 104.346954,194.985580 
	C109.830048,195.077820 112.684364,197.889404 112.844894,203.824417 
	C113.011200,209.973053 112.965881,216.131409 112.849312,222.282425 
	C112.755699,227.221954 110.579575,230.546539 104.828156,231.008698 
M101.330299,220.938889 
	C102.302284,222.567200 103.274269,224.195511 104.246254,225.823822 
	C105.125122,224.093018 106.654755,222.401291 106.761421,220.624130 
	C107.087646,215.188797 107.048973,209.710083 106.734520,204.272400 
	C106.652969,202.862091 105.042786,201.540176 104.134750,200.177658 
	C103.208427,201.511917 101.568436,202.801941 101.482536,204.188263 
	C101.155983,209.458832 101.331627,214.760498 101.330299,220.938889 
z"/>
<path fill="#F7D85B" opacity="1.000000" stroke="none" 
	d="
M115.468384,202.850128 
	C115.153046,200.158615 114.916527,197.887802 114.677307,195.590988 
	C118.937622,194.149460 120.776077,195.190079 121.195511,199.541626 
	C121.792412,205.734467 122.998497,211.868591 125.060539,218.006348 
	C126.040230,211.641541 127.206116,205.297760 127.927513,198.903824 
	C128.338760,195.258835 129.929474,194.305176 134.006424,195.606964 
	C133.467529,199.306961 132.919159,203.166992 132.340668,207.022522 
	C131.354172,213.597275 130.119949,220.145599 129.438736,226.751328 
	C129.041824,230.600113 127.125328,231.037308 123.844269,231.143051 
	C120.161644,231.261749 119.446625,229.428665 119.040314,226.445435 
	C117.986153,218.705536 116.725471,210.993790 115.468384,202.850128 
z"/>
<path fill="#F9D95A" opacity="1.000000" stroke="none" 
	d="
M229.810150,224.475677 
	C227.424149,230.377853 223.705948,232.296722 218.336945,230.773117 
	C214.096024,229.569626 212.437912,226.038651 213.474243,220.178711 
	C214.906693,220.178711 216.369873,220.178711 217.722229,220.178711 
	C218.018692,220.623016 218.226608,220.880325 218.376236,221.167938 
	C219.163391,222.681091 219.875809,224.241898 220.815384,225.652084 
	C220.900101,225.779205 223.124847,224.989670 223.148026,224.560623 
	C223.249146,222.688034 223.449661,220.478409 222.589493,218.978882 
	C221.386337,216.881439 218.952133,215.513321 217.624222,213.458603 
	C215.789474,210.619583 213.632416,207.560638 213.154602,204.365417 
	C212.264145,198.410690 215.658936,195.030563 221.298676,194.986893 
	C227.184021,194.941315 229.669022,197.660370 229.615387,204.371643 
	C227.118591,205.072144 224.618057,206.346970 223.779190,202.079407 
	C223.633728,201.339386 221.664185,200.179825 221.325974,200.404007 
	C220.373505,201.035355 219.008179,202.668976 219.268005,203.229019 
	C220.544724,205.981003 221.883591,208.920639 223.971039,211.032318 
	C227.641830,214.745789 230.685257,218.454132 229.810150,224.475677 
z"/>
<path fill="#FCDC5A" opacity="1.000000" stroke="none" 
	d="
M238.873688,223.728485 
	C241.678604,225.088120 244.443085,225.988678 247.969406,227.137421 
	C248.004990,227.581955 248.114441,228.949600 248.252991,230.680847 
	C243.066696,230.680847 238.324646,230.680847 233.081818,230.680847 
	C233.081818,218.986664 233.081818,207.298218 233.081818,195.296951 
	C237.964966,195.296951 242.728622,195.296951 247.958572,195.296951 
	C248.028961,196.634583 248.101990,198.022705 248.190475,199.704330 
	C245.029510,199.913223 242.281433,200.094849 239.175964,200.300079 
	C239.175964,203.414017 239.175964,206.314896 239.175964,209.590179 
	C241.325348,209.815308 243.414719,210.034149 245.966995,210.301483 
	C246.039856,211.639801 246.115112,213.022385 246.205261,214.678345 
	C243.714554,214.900818 241.625610,215.087418 238.833252,215.336838 
	C238.833252,218.066040 238.833252,220.667740 238.873688,223.728485 
z"/>
<path fill="#FADA5A" opacity="1.000000" stroke="none" 
	d="
M152.473633,215.658188 
	C152.184998,219.112732 152.184998,222.225311 152.184998,225.690933 
	C155.213745,225.873474 157.976913,226.039993 160.878082,226.214828 
	C162.027618,229.169266 161.965012,231.129990 158.041779,231.031754 
	C154.233917,230.936386 150.421783,231.011047 146.213638,231.011047 
	C146.213638,218.901245 146.213638,207.186066 146.213638,195.003082 
	C150.571686,195.003082 154.719147,194.841385 158.835922,195.125031 
	C159.779572,195.190063 160.617599,196.787903 161.504227,197.680328 
	C160.665817,198.451599 159.911102,199.736084 158.971893,199.889267 
	C156.901398,200.226944 154.737885,199.994156 152.261200,199.994156 
	C152.261200,203.423401 152.261200,206.326309 152.261200,209.089325 
	C154.155411,211.501373 160.895432,207.304443 159.084900,214.668076 
	C156.963593,214.885544 154.862930,215.100876 152.473633,215.658188 
z"/>
<path fill="#F7D85A" opacity="1.000000" stroke="none" 
	d="
M136.183563,212.001953 
	C136.183578,206.215973 136.183578,200.929108 136.183578,195.267776 
	C138.327972,195.168839 139.910553,195.095810 141.975891,195.000519 
	C141.975891,207.014465 141.975891,218.699692 141.975891,230.694458 
	C140.316132,230.694458 138.723770,230.694458 136.183563,230.694458 
	C136.183563,224.627777 136.183563,218.564438 136.183563,212.001953 
z"/>
<path fill="#F6D75C" opacity="1.000000" stroke="none" 
	d="
M120.032944,93.206848 
	C121.100204,91.910385 122.158638,91.037323 123.217072,90.164253 
	C123.794685,91.165199 124.705162,92.113228 124.874603,93.179054 
	C125.152718,94.928490 124.949921,96.754387 124.949921,98.831024 
	C123.190529,98.831024 121.788788,98.831024 120.024117,98.831024 
	C120.024117,96.895599 120.024117,95.262917 120.032944,93.206848 
z"/>
<path fill="#F6D75C" opacity="1.000000" stroke="none" 
	d="
M195.962921,97.319084 
	C194.519302,98.264275 193.105698,98.809937 191.085739,99.589653 
	C191.085739,96.632523 190.800125,94.757812 191.189499,93.035728 
	C191.435486,91.947830 192.689453,91.087852 193.491318,90.125641 
	C194.326965,91.065323 195.511459,91.880501 195.903336,92.978554 
	C196.322571,94.153252 195.994690,95.594589 195.962921,97.319084 
z"/>
<path fill="#F0D35C" opacity="1.000000" stroke="none" 
	d="
M191.609894,154.036896 
	C191.248657,151.605804 190.757629,149.370132 191.286118,147.409195 
	C191.508377,146.584396 193.885025,146.340195 195.282318,145.832062 
	C195.488708,148.222839 195.965515,150.642975 195.711212,152.983688 
	C195.647690,153.568314 193.228500,153.897003 191.609894,154.036896 
z"/>
<path fill="#F0D35C" opacity="1.000000" stroke="none" 
	d="
M123.725403,145.568176 
	C124.387993,148.073105 124.939888,150.469971 124.750023,152.806534 
	C124.699203,153.431946 122.384125,153.873367 121.108513,154.399231 
	C120.747833,152.227859 120.024162,150.026794 120.198166,147.899139 
	C120.271774,146.999054 122.233139,146.253372 123.725403,145.568176 
z"/>
<path fill="#F8D95B" opacity="1.000000" stroke="none" 
	d="
M124.821365,116.522392 
	C123.459328,117.349777 122.179024,117.747803 120.062820,118.405693 
	C120.062820,115.656082 119.788612,113.667763 120.166283,111.812119 
	C120.390633,110.709808 121.641647,109.816452 122.431068,108.829155 
	C123.275520,109.759583 124.531120,110.565414 124.860420,111.651970 
	C125.272522,113.011734 124.923553,114.602173 124.821365,116.522392 
z"/>
<path fill="#F8D95B" opacity="1.000000" stroke="none" 
	d="
M192.234772,109.053650 
	C193.759872,109.864998 195.426544,110.639473 195.839874,111.844017 
	C196.393585,113.457672 195.976959,115.404289 195.976959,117.118744 
	C190.684143,118.314087 189.887238,116.638687 192.234772,109.053650 
z"/>
<path fill="#F8D95B" opacity="1.000000" stroke="none" 
	d="
M124.973358,132.834625 
	C123.833054,134.364120 122.700142,135.455276 120.948006,137.142853 
	C119.192169,127.838371 119.593063,126.994530 124.746086,127.657356 
	C124.822205,129.194382 124.901482,130.795334 124.973358,132.834625 
z"/>
<path fill="#FADA5A" opacity="1.000000" stroke="none" 
	d="
M195.988937,169.808472 
	C194.848572,171.320969 193.714706,172.395447 192.580841,173.469925 
	C191.850693,173.002243 191.120529,172.534561 190.390366,172.066879 
	C191.304703,169.377670 191.699265,164.787369 193.234116,164.367752 
	C197.290894,163.258621 195.489746,167.341156 195.988937,169.808472 
z"/>
<path fill="#FADA5A" opacity="1.000000" stroke="none" 
	d="
M120.087250,166.333038 
	C121.350937,165.094421 122.585365,164.292053 124.656532,162.945831 
	C124.656532,166.971512 124.656532,169.526077 124.660950,172.082550 
	C120.050293,173.431259 120.050293,173.431259 120.087250,166.333038 
z"/>
<path fill="#F8D95B" opacity="1.000000" stroke="none" 
	d="
M195.852524,128.479492 
	C195.936386,131.020401 195.936386,133.132690 195.936386,136.088379 
	C194.112503,135.685379 191.627731,135.563446 191.541641,135.043991 
	C191.152695,132.696976 191.442337,130.237488 191.487518,127.818504 
	C192.914566,127.895958 194.341614,127.973412 195.852524,128.479492 
z"/>
<path fill="#757473" opacity="1.000000" stroke="none" 
	d="
M153.046112,146.118500 
	C140.186584,146.111694 140.180389,146.111710 140.162476,133.931595 
	C140.152924,127.438858 140.204269,120.945869 140.161346,114.453430 
	C140.132584,110.101585 142.215607,108.023392 146.560760,108.044662 
	C154.218613,108.082161 161.876846,108.071442 169.534821,108.049011 
	C173.852219,108.036369 175.953003,110.069054 175.918213,114.459358 
	C175.850937,122.949242 175.838364,131.440689 175.925995,139.930206 
	C175.971954,144.382523 173.924973,146.262421 169.519104,146.143585 
	C164.195724,146.000015 158.865311,146.115997 153.046112,146.118500 
z"/>
<path fill="#848070" opacity="1.000000" stroke="none" 
	d="
M180.105301,225.907440 
	C179.300751,222.758881 178.908905,219.660583 178.517059,216.562286 
	C179.971924,216.383942 181.954712,215.516663 182.785217,216.153107 
	C185.563049,218.281708 183.971207,224.512451 180.105301,225.907440 
z"/>
<path fill="#817E70" opacity="1.000000" stroke="none" 
	d="
M183.397186,203.425980 
	C183.412628,206.730011 183.833557,209.947525 178.729065,209.867020 
	C178.596039,207.639191 178.237717,205.568527 178.440598,203.554367 
	C178.561325,202.355606 179.564392,201.245697 180.170776,200.095825 
	C181.237656,201.074997 182.304535,202.054184 183.397186,203.425980 
z"/>
<path fill="#848070" opacity="1.000000" stroke="none" 
	d="
M202.952728,213.076996 
	C203.226013,215.397491 203.442276,217.324432 203.655670,219.225876 
	C198.487305,220.097229 198.012177,217.416534 201.683960,206.836716 
	C202.226776,209.455795 202.561234,211.069626 202.952728,213.076996 
z"/>
<path fill="#848070" opacity="1.000000" stroke="none" 
	d="
M101.324921,220.494720 
	C101.331627,214.760498 101.155983,209.458832 101.482536,204.188263 
	C101.568436,202.801941 103.208427,201.511917 104.134750,200.177658 
	C105.042786,201.540176 106.652969,202.862091 106.734520,204.272400 
	C107.048973,209.710083 107.087646,215.188797 106.761421,220.624130 
	C106.654755,222.401291 105.125122,224.093018 104.246254,225.823822 
	C103.274269,224.195511 102.302284,222.567200 101.324921,220.494720 
z"/>
</svg>