<svg xmlns="http://www.w3.org/2000/svg" width="318" height="301" viewBox="0 0 318 301" version="1.1"><path d="M 132.750 75.566 L 128 78.038 128 128.519 L 128 179 133.500 179 L 139 179 139 166.655 L 139 154.310 140.829 152.655 L 142.657 151 157.174 151 L 171.690 151 173.345 152.829 L 175 154.657 175 166.829 L 175 179 180.500 179 L 186 179 186 128.517 L 186 78.034 181.033 75.517 C 178.302 74.133, 175.827 73, 175.533 73 C 175.240 73, 175 78.430, 175 85.066 C 175 91.702, 174.534 98.002, 173.965 99.066 L 172.930 101 157 101 L 141.070 101 140.035 99.066 C 139.466 98.002, 139 91.702, 139 85.066 C 139 78.430, 138.662 73.021, 138.250 73.047 C 137.838 73.072, 135.363 74.206, 132.750 75.566 M 111.250 86.745 L 108 88.363 108 133.681 L 108 179 111.500 179 L 115 179 115 132 C 115 106.150, 114.888 85.029, 114.750 85.064 C 114.612 85.099, 113.037 85.856, 111.250 86.745 M 199 131.917 L 199 179 202.500 179 L 206 179 206 133.661 L 206 88.321 203.250 86.943 C 201.738 86.184, 200.162 85.400, 199.750 85.199 C 199.338 84.998, 199 106.021, 199 131.917 M 119 93.500 L 119 98 121.500 98 L 124 98 124 93.500 L 124 89 121.500 89 L 119 89 119 93.500 M 190 93.500 L 190 98 192.500 98 L 195 98 195 93.500 L 195 89 192.500 89 L 190 89 190 93.500 M 140.655 108.829 L 139 110.657 139 125.894 C 139 134.485, 139.452 141.975, 140.035 143.066 L 141.070 145 157 145 L 172.930 145 173.965 143.066 C 174.550 141.972, 175 134.431, 175 125.721 L 175 110.310 173.171 108.655 L 171.343 107 156.826 107 L 142.310 107 140.655 108.829 M 119 112.500 L 119 117 121.500 117 L 124 117 124 112.500 L 124 108 121.500 108 L 119 108 119 112.500 M 190 112.500 L 190 117 192.500 117 L 195 117 195 112.500 L 195 108 192.500 108 L 190 108 190 112.500 M 119 130.500 L 119 135 121.500 135 L 124 135 124 130.500 L 124 126 121.500 126 L 119 126 119 130.500 M 190 130.500 L 190 135 192.500 135 L 195 135 195 130.500 L 195 126 192.500 126 L 190 126 190 130.500 M 119 149 L 119 154 121.500 154 L 124 154 124 149 L 124 144 121.500 144 L 119 144 119 149 M 190 149 L 190 154 192.500 154 L 195 154 195 149 L 195 144 192.500 144 L 190 144 190 149 M 119 167.500 L 119 172 121.500 172 L 124 172 124 167.500 L 124 163 121.500 163 L 119 163 119 167.500 M 190 167.500 L 190 172 192.500 172 L 195 172 195 167.500 L 195 163 192.500 163 L 190 163 190 167.500 M 68 212 L 68 230 70.500 230 L 73 230 73.117 220.250 L 73.234 210.500 74.874 220 L 76.515 229.500 79.544 229.797 L 82.574 230.095 84.148 220.297 L 85.722 210.500 85.861 220.250 L 86 230 89 230 L 92 230 92 212 L 92 194 87.615 194 L 83.230 194 82.081 202.250 C 81.449 206.787, 80.642 211.850, 80.287 213.500 L 79.643 216.500 78.935 212.500 C 78.546 210.300, 77.686 205.238, 77.023 201.250 L 75.819 194 71.910 194 L 68 194 68 212 M 98.229 194.669 C 97.530 194.951, 96.292 196.468, 95.479 198.041 L 94 200.901 94 212 L 94 223.099 95.463 225.928 C 96.268 227.485, 97.654 229.037, 98.545 229.379 C 101.708 230.593, 106.813 229.972, 109.139 228.091 L 111.500 226.181 111.827 212.622 L 112.154 199.063 109.622 196.531 L 107.091 194 103.295 194.079 C 101.208 194.122, 98.928 194.388, 98.229 194.669 M 115.641 209.750 C 116.930 218.412, 118.222 226.512, 118.512 227.750 L 119.038 230 123.519 230 L 128 230 128.010 228.750 C 128.016 228.063, 129.141 220.375, 130.510 211.667 C 131.880 202.959, 133 195.421, 133 194.917 C 133 194.413, 131.712 194, 130.138 194 L 127.275 194 126.619 199.585 C 126.258 202.657, 125.438 208.620, 124.798 212.835 L 123.633 220.500 122.907 217.073 C 122.507 215.189, 121.617 209.226, 120.928 203.823 L 119.677 194 116.487 194 L 113.296 194 115.641 209.750 M 135 212 L 135 230 138 230 L 141 230 141 212 L 141 194 138 194 L 135 194 135 212 M 145 212 L 145 230 153 230 L 161 230 161 227.500 L 161 225 156 225 L 151 225 151 219.500 L 151 214 155 214 L 159 214 159 211.500 L 159 209 155 209 L 151 209 151 204 L 151 199 156 199 L 161 199 161 196.500 L 161 194 153 194 L 145 194 145 212 M 171 212 L 171 230 177.545 230 L 184.091 230 186.545 227.545 L 189 225.091 189 220.268 C 189 217.482, 188.330 214.488, 187.413 213.180 L 185.826 210.914 187.106 209.373 C 187.809 208.525, 188.385 205.559, 188.385 202.781 L 188.385 197.730 186.082 195.865 L 183.778 194 177.389 194 L 171 194 171 212 M 193.634 210.750 C 192.177 219.963, 190.989 228.092, 190.993 228.816 C 190.997 229.661, 191.985 230.020, 193.750 229.816 L 196.500 229.500 196.816 226.750 L 197.133 224 200.500 224 L 203.867 224 204.184 226.750 L 204.500 229.500 207.786 229.816 L 211.071 230.132 210.552 227.816 C 210.266 226.542, 209.122 219.650, 208.010 212.500 C 206.897 205.350, 205.729 198.262, 205.414 196.750 L 204.841 194 200.562 194 L 196.283 194 193.634 210.750 M 214.455 196.455 L 212 198.909 212 202.917 L 212 206.924 217.549 213.143 L 223.098 219.362 222.799 221.931 L 222.500 224.500 220.500 224.500 L 218.500 224.500 218.184 221.750 L 217.867 219 214.934 219 L 212 219 212 222.326 L 212 225.651 214.314 227.826 L 216.629 230 220.360 230 L 224.091 230 226.545 227.545 L 229 225.091 229 221.037 L 229 216.983 223.439 210.934 L 217.878 204.885 218.189 202.192 L 218.500 199.500 220.500 199.500 L 222.500 199.500 222.820 201.750 L 223.139 204 226.070 204 L 229 204 229 201.455 C 229 200.055, 227.895 197.805, 226.545 196.455 L 224.091 194 220.500 194 L 216.909 194 214.455 196.455 M 232 212 L 232 230 239.500 230 L 247 230 247 227.500 L 247 225 242.500 225 L 238 225 238 219.500 L 238 214 241.500 214 L 245 214 245 211.500 L 245 209 241.500 209 L 238 209 238 204 L 238 199 242.500 199 L 247 199 247 196.500 L 247 194 239.500 194 L 232 194 232 212 M 101.035 200.934 C 100.466 201.998, 100 207.087, 100 212.243 L 100 221.618 101.392 223.521 L 102.784 225.425 104.392 224.090 L 106 222.755 106 212.078 L 106 201.400 104.800 200.200 C 103.123 198.523, 102.233 198.697, 101.035 200.934 M 177 204 L 177 209.139 179.250 208.820 L 181.500 208.500 181.500 204 L 181.500 199.500 179.250 199.180 L 177 198.861 177 204 M 199.649 208.500 C 199.250 211.250, 198.681 214.738, 198.383 216.250 L 197.841 219 200.358 219 L 202.874 219 202.304 215.250 C 201.990 213.188, 201.428 209.700, 201.053 207.500 L 200.373 203.500 199.649 208.500 M 177 219.566 L 177 225.133 179.750 224.816 L 182.500 224.500 182.815 220.680 C 183.164 216.440, 181.725 214, 178.878 214 L 177 214 177 219.566" stroke="none" fill="#f7d85c" fill-rule="evenodd"/><path d="M 0 150.503 L 0 301.006 159.250 300.753 L 318.500 300.500 318.753 150.250 L 319.006 0 159.503 0 L 0 0 0 150.503 M 0.487 151 C 0.487 233.775, 0.605 267.637, 0.750 226.250 C 0.894 184.862, 0.894 117.137, 0.750 75.750 C 0.605 34.362, 0.487 68.225, 0.487 151 M 132.750 75.566 L 128 78.038 128 128.519 L 128 179 133.500 179 L 139 179 139 166.655 L 139 154.310 140.829 152.655 L 142.657 151 157.174 151 L 171.690 151 173.345 152.829 L 175 154.657 175 166.829 L 175 179 180.500 179 L 186 179 186 128.517 L 186 78.034 181.033 75.517 C 178.302 74.133, 175.827 73, 175.533 73 C 175.240 73, 175 78.430, 175 85.066 C 175 91.702, 174.534 98.002, 173.965 99.066 L 172.930 101 157 101 L 141.070 101 140.035 99.066 C 139.466 98.002, 139 91.702, 139 85.066 C 139 78.430, 138.662 73.021, 138.250 73.047 C 137.838 73.072, 135.363 74.206, 132.750 75.566 M 111.250 86.745 L 108 88.363 108 133.681 L 108 179 111.500 179 L 115 179 115 132 C 115 106.150, 114.888 85.029, 114.750 85.064 C 114.612 85.099, 113.037 85.856, 111.250 86.745 M 199 131.917 L 199 179 202.500 179 L 206 179 206 133.661 L 206 88.321 203.250 86.943 C 201.738 86.184, 200.162 85.400, 199.750 85.199 C 199.338 84.998, 199 106.021, 199 131.917 M 119 93.500 L 119 98 121.500 98 L 124 98 124 93.500 L 124 89 121.500 89 L 119 89 119 93.500 M 190 93.500 L 190 98 192.500 98 L 195 98 195 93.500 L 195 89 192.500 89 L 190 89 190 93.500 M 140.655 108.829 L 139 110.657 139 125.894 C 139 134.485, 139.452 141.975, 140.035 143.066 L 141.070 145 157 145 L 172.930 145 173.965 143.066 C 174.550 141.972, 175 134.431, 175 125.721 L 175 110.310 173.171 108.655 L 171.343 107 156.826 107 L 142.310 107 140.655 108.829 M 119 112.500 L 119 117 121.500 117 L 124 117 124 112.500 L 124 108 121.500 108 L 119 108 119 112.500 M 190 112.500 L 190 117 192.500 117 L 195 117 195 112.500 L 195 108 192.500 108 L 190 108 190 112.500 M 119 130.500 L 119 135 121.500 135 L 124 135 124 130.500 L 124 126 121.500 126 L 119 126 119 130.500 M 190 130.500 L 190 135 192.500 135 L 195 135 195 130.500 L 195 126 192.500 126 L 190 126 190 130.500 M 119 149 L 119 154 121.500 154 L 124 154 124 149 L 124 144 121.500 144 L 119 144 119 149 M 190 149 L 190 154 192.500 154 L 195 154 195 149 L 195 144 192.500 144 L 190 144 190 149 M 119 167.500 L 119 172 121.500 172 L 124 172 124 167.500 L 124 163 121.500 163 L 119 163 119 167.500 M 190 167.500 L 190 172 192.500 172 L 195 172 195 167.500 L 195 163 192.500 163 L 190 163 190 167.500 M 68 212 L 68 230 70.500 230 L 73 230 73.117 220.250 L 73.234 210.500 74.874 220 L 76.515 229.500 79.544 229.797 L 82.574 230.095 84.148 220.297 L 85.722 210.500 85.861 220.250 L 86 230 89 230 L 92 230 92 212 L 92 194 87.615 194 L 83.230 194 82.081 202.250 C 81.449 206.787, 80.642 211.850, 80.287 213.500 L 79.643 216.500 78.935 212.500 C 78.546 210.300, 77.686 205.238, 77.023 201.250 L 75.819 194 71.910 194 L 68 194 68 212 M 98.229 194.669 C 97.530 194.951, 96.292 196.468, 95.479 198.041 L 94 200.901 94 212 L 94 223.099 95.463 225.928 C 96.268 227.485, 97.654 229.037, 98.545 229.379 C 101.708 230.593, 106.813 229.972, 109.139 228.091 L 111.500 226.181 111.827 212.622 L 112.154 199.063 109.622 196.531 L 107.091 194 103.295 194.079 C 101.208 194.122, 98.928 194.388, 98.229 194.669 M 115.641 209.750 C 116.930 218.412, 118.222 226.512, 118.512 227.750 L 119.038 230 123.519 230 L 128 230 128.010 228.750 C 128.016 228.063, 129.141 220.375, 130.510 211.667 C 131.880 202.959, 133 195.421, 133 194.917 C 133 194.413, 131.712 194, 130.138 194 L 127.275 194 126.619 199.585 C 126.258 202.657, 125.438 208.620, 124.798 212.835 L 123.633 220.500 122.907 217.073 C 122.507 215.189, 121.617 209.226, 120.928 203.823 L 119.677 194 116.487 194 L 113.296 194 115.641 209.750 M 135 212 L 135 230 138 230 L 141 230 141 212 L 141 194 138 194 L 135 194 135 212 M 145 212 L 145 230 153 230 L 161 230 161 227.500 L 161 225 156 225 L 151 225 151 219.500 L 151 214 155 214 L 159 214 159 211.500 L 159 209 155 209 L 151 209 151 204 L 151 199 156 199 L 161 199 161 196.500 L 161 194 153 194 L 145 194 145 212 M 171 212 L 171 230 177.545 230 L 184.091 230 186.545 227.545 L 189 225.091 189 220.268 C 189 217.482, 188.330 214.488, 187.413 213.180 L 185.826 210.914 187.106 209.373 C 187.809 208.525, 188.385 205.559, 188.385 202.781 L 188.385 197.730 186.082 195.865 L 183.778 194 177.389 194 L 171 194 171 212 M 193.634 210.750 C 192.177 219.963, 190.989 228.092, 190.993 228.816 C 190.997 229.661, 191.985 230.020, 193.750 229.816 L 196.500 229.500 196.816 226.750 L 197.133 224 200.500 224 L 203.867 224 204.184 226.750 L 204.500 229.500 207.786 229.816 L 211.071 230.132 210.552 227.816 C 210.266 226.542, 209.122 219.650, 208.010 212.500 C 206.897 205.350, 205.729 198.262, 205.414 196.750 L 204.841 194 200.562 194 L 196.283 194 193.634 210.750 M 214.455 196.455 L 212 198.909 212 202.917 L 212 206.924 217.549 213.143 L 223.098 219.362 222.799 221.931 L 222.500 224.500 220.500 224.500 L 218.500 224.500 218.184 221.750 L 217.867 219 214.934 219 L 212 219 212 222.326 L 212 225.651 214.314 227.826 L 216.629 230 220.360 230 L 224.091 230 226.545 227.545 L 229 225.091 229 221.037 L 229 216.983 223.439 210.934 L 217.878 204.885 218.189 202.192 L 218.500 199.500 220.500 199.500 L 222.500 199.500 222.820 201.750 L 223.139 204 226.070 204 L 229 204 229 201.455 C 229 200.055, 227.895 197.805, 226.545 196.455 L 224.091 194 220.500 194 L 216.909 194 214.455 196.455 M 232 212 L 232 230 239.500 230 L 247 230 247 227.500 L 247 225 242.500 225 L 238 225 238 219.500 L 238 214 241.500 214 L 245 214 245 211.500 L 245 209 241.500 209 L 238 209 238 204 L 238 199 242.500 199 L 247 199 247 196.500 L 247 194 239.500 194 L 232 194 232 212 M 101.035 200.934 C 100.466 201.998, 100 207.087, 100 212.243 L 100 221.618 101.392 223.521 L 102.784 225.425 104.392 224.090 L 106 222.755 106 212.078 L 106 201.400 104.800 200.200 C 103.123 198.523, 102.233 198.697, 101.035 200.934 M 177 204 L 177 209.139 179.250 208.820 L 181.500 208.500 181.500 204 L 181.500 199.500 179.250 199.180 L 177 198.861 177 204 M 199.649 208.500 C 199.250 211.250, 198.681 214.738, 198.383 216.250 L 197.841 219 200.358 219 L 202.874 219 202.304 215.250 C 201.990 213.188, 201.428 209.700, 201.053 207.500 L 200.373 203.500 199.649 208.500 M 177 219.566 L 177 225.133 179.750 224.816 L 182.500 224.500 182.815 220.680 C 183.164 216.440, 181.725 214, 178.878 214 L 177 214 177 219.566" stroke="none" fill="#747473" fill-rule="evenodd"/></svg>